
<svg xmlns="http://www.w3.org/2000/svg" xmlns:xlink="http://www.w3.org/1999/xlink" viewBox="0 0 30 30" width="30px" height="30px">
<g id="surface362052401">
<path style=" stroke:none;fill-rule:nonzero;fill:rgb(100%,100%,100%);fill-opacity:1;" d="M 26 4 L 26 14.511719 C 25.363281 14.285156 24.695312 14.132812 24 14.054688 L 24 6 L 8 6 L 8 20 L 12 20 L 12 23 L 14.296875 20.703125 C 14.101562 21.4375 14 22.207031 14 23 C 14 23.910156 14.136719 24.785156 14.386719 25.613281 L 13 27 L 9 27 L 9 24 L 4 24 L 4 8 L 6 4 Z M 15 9 L 15 16 L 13 16 L 13 9 Z M 19 9 L 19 14.933594 C 18.40625 15.230469 17.851562 15.585938 17.34375 16 L 17 16 L 17 9 Z M 19 9 "/>
<path style=" stroke:none;fill-rule:nonzero;fill:rgb(80.000001%,80.000001%,80.000001%);fill-opacity:1;" d="M 23 16 C 19.132812 16 16 19.132812 16 23 C 16 26.867188 19.132812 30 23 30 C 26.867188 30 30 26.867188 30 23 C 30 19.132812 26.867188 16 23 16 Z M 26 24 L 24 24 L 24 26 C 24 26.550781 23.550781 27 23 27 C 22.449219 27 22 26.550781 22 26 L 22 24 L 20 24 C 19.449219 24 19 23.550781 19 23 C 19 22.449219 19.449219 22 20 22 L 22 22 L 22 20 C 22 19.449219 22.449219 19 23 19 C 23.550781 19 24 19.449219 24 20 L 24 22 L 26 22 C 26.550781 22 27 22.449219 27 23 C 27 23.550781 26.550781 24 26 24 Z M 26 24 "/>
</g>
</svg>
